<svg width="18" height="19" viewBox="0 0 18 19" fill="none" xmlns="http://www.w3.org/2000/svg">
<g id="&#240;&#159;&#166;&#134; icon &#34;Search&#34;">
<path id="Vector" d="M17.4297 15.7795L13.9886 12.3384C13.8333 12.1831 13.6228 12.0968 13.4019 12.0968H12.8393C13.7919 10.8784 14.3579 9.346 14.3579 7.67896C14.3579 3.71328 11.1446 0.5 7.17896 0.5C3.21328 0.5 0 3.71328 0 7.67896C0 11.6446 3.21328 14.8579 7.17896 14.8579C8.846 14.8579 10.3784 14.2919 11.5968 13.3393V13.9019C11.5968 14.1228 11.6831 14.3333 11.8384 14.4886L15.2795 17.9297C15.6039 18.2541 16.1285 18.2541 16.4495 17.9297L17.4262 16.9529C17.7507 16.6285 17.7507 16.1039 17.4297 15.7795ZM7.17896 12.0968C4.73881 12.0968 2.76114 10.1226 2.76114 7.67896C2.76114 5.23881 4.73535 3.26114 7.17896 3.26114C9.61912 3.26114 11.5968 5.23535 11.5968 7.67896C11.5968 10.1191 9.62257 12.0968 7.17896 12.0968Z" fill="white"/>
</g>
</svg>
